<svg width="200" height="200" viewBox="0 0 200 200" fill="none" xmlns="http://www.w3.org/2000/svg">
<path d="M82.9009 143.356C78.8954 138.586 74.8686 133.834 70.8899 129.041C66.5998 123.874 62.3548 118.669 57.9635 113.326C57.4907 114.166 57.088 114.88 56.5307 115.87C56.021 115.093 55.5694 114.405 54.8461 113.304C45.8541 132.511 37.1559 151.091 28.4344 169.721C-0.152702 142.71 -8.28799 94.745 9.08402 57.9947C16.7144 67.2965 24.2638 76.4952 31.8081 85.698C39.3741 94.9273 46.935 104.161 54.6014 113.518C55.0895 112.647 55.4963 111.921 56.0347 110.96C56.5706 111.752 57.0692 112.489 57.742 113.484C70.7692 85.6705 83.5147 58.4584 96.464 30.8116C105.432 43.8793 114.226 56.693 123.065 69.5737C123.585 68.779 124.043 68.0785 124.602 67.2238C125.25 68.0246 125.78 68.6792 126.392 69.4354C136.039 51.7102 145.624 34.101 155.399 16.141C157.811 17.9011 160.196 19.5029 162.429 21.2944C178.466 34.1609 189.497 50.4934 195.854 70.0086C196.806 72.9299 197.564 75.9284 198.175 78.9392C198.39 80.0002 198.198 81.3673 197.684 82.3201C188.572 99.2017 179.383 116.041 170.007 133.262C155.39 111.943 140.918 90.8353 126.371 69.6189C125.835 70.5012 125.385 71.2404 124.906 72.0275C124.351 71.3627 123.809 70.7137 123.093 69.8569C109.706 94.4131 96.4205 118.784 82.9893 143.263C82.8439 143.372 82.9009 143.356 82.9009 143.356Z" fill="#313942"/>
<path d="M82.9339 143.558C82.9009 143.356 82.8439 143.372 82.8306 143.363C83.38 144.147 83.9426 144.94 84.7054 146.015C98.1381 121.342 111.443 96.9043 124.871 72.2405C139.502 93.577 153.967 114.673 168.485 135.845C169.061 134.938 169.516 134.224 170.02 133.431C170.556 134.115 171.028 134.718 171.775 135.671C180.907 118.917 189.933 102.359 199.209 85.3411C201.801 110.197 198.321 133.161 184.32 154.098C180.128 148.009 176.032 142.061 171.8 135.915C171.188 136.833 170.721 137.532 170.288 138.433C170.321 138.635 170.407 138.629 170.407 138.629C169.843 137.832 169.278 137.035 168.539 135.992C165.788 141.026 163.142 145.847 160.516 150.678C153.127 164.27 145.77 177.879 138.311 191.432C137.769 192.416 136.623 193.278 135.56 193.723C133.17 194.723 130.619 195.331 128.206 196.283C126.839 196.823 126.061 196.45 125.204 195.397C117.174 185.526 109.112 175.682 101.048 165.839C95.6996 159.309 90.3338 152.793 84.8374 146.103C84.3235 146.874 83.9074 147.499 83.3813 148.288C82.7572 147.716 82.1638 147.172 81.385 146.459C73.3526 161.207 65.3709 175.862 57.3208 190.643C50.8194 187.65 44.8178 184.087 39.3029 179.734C36.7015 177.681 34.2767 175.405 31.6946 173.326C30.537 172.394 30.5414 171.572 31.1424 170.295C39.6055 152.309 48.0153 134.298 56.5984 115.951C64.9014 126.064 73.074 136.019 81.3983 146.159C82.0426 145.173 82.5047 144.466 82.9339 143.558Z" fill="#313942"/>
<path d="M96.2181 25.9757C96.7324 26.5529 97.2466 27.1301 97.8658 27.8251C101.902 19.1944 105.887 10.7987 109.735 2.34129C110.479 0.706375 111.308 0.129562 113.113 0.373853C127.236 2.28527 140.322 7.07238 152.521 14.3798C152.646 14.455 152.717 14.6223 152.959 14.9347C143.587 32.1525 134.171 49.4516 124.609 67.0194C115.648 53.9535 106.837 41.1081 97.9216 28.1096C97.3746 29.0391 96.9227 29.8071 96.4323 30.6406C95.864 29.891 95.3494 29.2122 94.6519 28.2921C81.7363 55.8598 68.9255 83.2037 55.9957 110.802C51.5616 105.421 47.2905 100.262 43.0445 95.0815C32.6248 82.3694 22.2445 69.6246 11.7644 56.9625C10.6075 55.5648 10.5206 54.5587 11.3603 53.0263C25.1002 27.9526 45.6417 11.3497 73.0571 3.27167C74.2635 2.91621 75.4857 2.61458 76.8905 2.23682C82.7378 10.7571 88.6101 19.3135 94.6105 28.0568C95.0393 27.3174 95.3447 26.7909 95.8356 26.1241C96.021 25.9837 96.2181 25.9757 96.2181 25.9757Z" fill="#313942"/>
<path d="M108.859 179.675C113.722 185.606 118.47 191.413 123.233 197.239C111.43 202.768 73.8515 199.517 59.8495 191.705C67.6309 177.41 75.4135 163.114 83.3416 148.55C91.9501 159.056 100.347 169.303 108.859 179.675Z" fill="#313942"/>
<path d="M170.251 138.738C170.407 138.629 170.321 138.635 170.3 138.631C174.185 144.272 178.133 149.887 181.933 155.602C182.316 156.178 182.108 157.569 181.654 158.216C175.063 167.626 167.114 175.733 157.593 182.163C153.096 185.2 148.231 187.695 143.523 190.42C143.087 190.673 142.581 190.806 141.53 191.226C151.246 173.41 160.67 156.128 170.251 138.738Z" fill="#313942"/>
<path d="M96.1622 25.7939C96.2182 25.9757 96.021 25.9837 95.9224 25.9845C95.5639 25.2985 95.4265 24.5285 95.0254 23.9378C90.4626 17.2175 85.8579 10.5257 81.2698 3.82259C80.8406 3.19547 80.4481 2.5432 79.9101 1.70175C89.1132 -0.639623 98.2724 0.19429 107.854 0C106.609 2.67882 105.49 5.05514 104.397 7.44355C101.627 13.4968 98.869 19.5555 96.1622 25.7939Z" fill="#313942"/>
</svg>
